<?xml version="1.0" encoding="utf-8"?>
<!-- Generator: Adobe Illustrator 19.0.0, SVG Export Plug-In . SVG Version: 6.00 Build 0)  -->
<svg version="1.1" id="layer" xmlns="http://www.w3.org/2000/svg" xmlns:xlink="http://www.w3.org/1999/xlink" x="0px" y="0px"
	 viewBox="-153 -46 652 652" style="enable-background:new -153 -46 652 652;" xml:space="preserve">
<style type="text/css">
	.st0{fill:#0A3761;}
	.st1{fill:#FFFFFF;}
	.st2{fill:#FF6600;}
</style>
<rect x="-126.5" y="153.4" class="st0" width="600" height="253.2"/>
<path class="st1" d="M-77.3,204.1h25.8v20.5h-25.8V204.1z M-77.3,235.2h25.8v70.6h-25.8V235.2z M-36.2,261.2c0-4.8-0.1-9.1,0.8-13
	c0.8-3.9,2.7-7.6,5.4-10.4c2.7-2.7,6.8-4.9,12-6.4c5.2-1.5,12.3-2.3,21.2-2.3h6.4c2.9,0,5.8,0.2,8.5,0.7c2.8,0.5,5.3,1.2,7.7,2.4
	c2.4,1.1,4.3,2.7,5.8,4.6c1.5,1.9,2.4,4.3,2.9,7.2l0.1-40h25.7V305H35.9v-13.6c-0.8,2.4-2.1,3.9-3.4,5.6c-1.3,1.8-3,3.3-5.1,4.7
	c-2.1,1.3-4.9,2.3-7.9,3c-3,0.7-5.9,1-10.1,1H3.2c-8.9,0-15.9-0.8-21.2-2.3c-5.2-1.5-9.3-3.6-12.1-6.5c-2.7-2.7-4.6-5.5-5.4-9.4
	s-0.8-8.2-0.8-13V261.2z M-11.3,272c0,2.1,0.2,4,0.5,5.8c0.3,1.7,1,3.1,2,4.3s2.5,2,4.5,2.6s4.7,0.9,8.3,0.9h14.1
	c2.8,0,5.3-0.2,7.5-0.6c2.2-0.4,4-1.1,5.5-2.2s2.6-2.5,3.3-4.3c0.8-1.8,1.1-4.2,1.1-7.1v-7.6c0-3-0.4-5.3-1.1-7.1
	c-0.8-1.8-1.8-3.3-3.3-4.3c-1.4-1.1-3.3-1.8-5.5-2.2s-4.7-0.6-7.5-0.6H3.9c-3.5,0-6.2,0.3-8.3,0.9c-2,0.6-3.5,1.4-4.5,2.6
	s-1.7,2.5-2,4.3c-0.3,1.7-0.5,3.6-0.5,5.8C-11.3,262.9-11.3,272-11.3,272z M141.6,285.3c-0.4,3.9-4.1,4.6-10.1,4.6h-17.8
	c-6.1,0-12.8-3-12.8-9.6v-5.1h66.1v-12.5c0-24.8-11.4-33.6-40-33.6h-19c-19.5,0-32.7,8.7-32.7,35.8v7c0,30.6,17.8,33.9,35.6,33.9
	h25.7c22.3,0,30.3-4.5,30.5-20.5C167.2,285.3,141.6,285.3,141.6,285.3z M101.1,256.9c0-7.8,3.1-12,13-12h15.3c9.8,0,13,4.1,13,12
	v3.3h-41.2L101.1,256.9L101.1,256.9z M177.2,279.2c0-19.7,28.1-18.8,30.5-18.8h20.4c5.2,0,12.4,1.7,14.8,4.3l0.5,0.5v-8.1
	c0-7.8-3-12.2-12.8-12.2h-15.3c-8.2,0-12.7,1.1-12.7,4.7h-23.2c0-15.3,12.4-20.5,32.2-20.5h30.1c17.9,0,27.3,9.4,27.3,26.7v49.2
	h-25.7v-9.6l-1.5,2.7c-4.3,6.2-7.7,7.7-20.7,7.7H203c-15.9,0-25.8-3.3-25.8-20.4V279.2z M233.7,290.8c7.1,0,9.8-2.8,9.8-8.1
	c0-9.1-2.3-10.4-16.1-10.6h-12.3c-10.3-0.1-12.8,2.5-12.8,8c-0.2,8.4,2.6,10.6,12.8,10.6C215.1,290.8,233.7,290.8,233.7,290.8z
	 M284.3,305.8h25.8V204.1h-25.8V305.8z M324.5,258.4c0-24.4,16-29.3,30.2-29.3h36.8c14.1,0,30.2,4.9,30.2,29.3v18.1
	c0,24.4-16,29.3-30.2,29.3h-36.8c-14.1,0-30.2-4.9-30.2-29.3V258.4z M349.4,271.9c0,2.1,0.2,4.1,0.5,5.8c0.3,1.7,1,3.2,2,4.3
	c1,1.1,2.6,2,4.6,2.6c2.1,0.6,4.9,0.9,8.4,0.9h14.1c2.9,0,5.4-0.2,7.7-0.6c2.3-0.4,4.1-1.1,5.6-2.2c1.5-1.1,2.6-2.5,3.3-4.3
	c0.8-1.8,1.1-4.3,1.1-7.2v-7.3c0-3-0.4-5.3-1.1-7.2c-0.8-1.8-1.9-3.3-3.3-4.3c-1.5-1.1-3.3-1.8-5.6-2.2c-2.3-0.4-4.8-0.6-7.7-0.6
	h-14.1c-3.6,0-6.4,0.3-8.4,0.9c-2.1,0.6-3.6,1.4-4.6,2.6c-1,1.1-1.7,2.6-2,4.3c-0.3,1.7-0.5,3.6-0.5,5.8
	C349.4,262.9,349.4,271.9,349.4,271.9z"/>
<path class="st2" d="M-77.3,355.9h499v-20.5h-499V355.9z"/>
</svg>
